<svg xmlns="http://www.w3.org/2000/svg" viewBox="0 0 500 500" xml:space="preserve"><path style="fill:#e5e7eb " d="M250 74.915c-70.217 0-148.13 32.087-148.13 83.616 0 65.862 78.752 189.96 148.13 189.96s148.13-124.098 148.13-189.96c0-51.529-77.913-83.616-148.13-83.616"/><path style="fill:#292f44" d="M126.258 157.727c4.161 1.573 8.366 3.168 12.043 5.671 3.678 2.503 6.833 6.039 7.998 10.333 1.163 4.293-.015 9.364-3.543 12.072-2.403 1.844-5.572 2.426-8.598 2.315-2.594-.096-5.291-.721-7.227-2.45-2.49-2.225-3.238-5.796-3.465-9.128-.409-6.011.435-12.106 2.792-18.813m4.033 70.688c-.473 9.804-3.159 19.447-7.39 28.304-2.062 4.318-4.845 8.772-9.345 10.402-4.805 1.741-10.341-.366-13.983-3.951s-5.76-8.405-6.894-12.714c2.382 3.143 4.831 6.349 8.131 8.507 3.3 2.16 7.674 3.102 11.226 1.388 2.208-1.065 3.866-3.029 5.095-5.15 2.585-4.46 3.494-9.657 4.995-14.588s3.884-9.969 8.165-12.198m-5.902-13.761a2.95 2.95 0 1 1 5.902 0 2.95 2.95 0 0 1-5.902 0m1.164 7.75a2.952 2.952 0 1 1 5.903.001 2.952 2.952 0 0 1-5.903-.001"/><path style="fill:#292f44" d="M122.465 234.632c1.073-2.723 3.033-5.089 5.536-6.618-2-.763-3.742-2.187-4.746-4.065a13.7 13.7 0 0 0-.79 10.683m-17.446 13.875-.223 8.448c-3.629-2.117-5.926-6.333-5.636-10.833 1.7 1.446 3.882 2.315 5.859 2.385m-7.047 1.867a17.4 17.4 0 0 0-.869-6.731l2.28.19a10.9 10.9 0 0 0-4.266-6.984c.161.021 2.48.415 2.48.415a14.5 14.5 0 0 0-2.067-8.078c-.022 2.98-1.374 5.677-2.482 8.334-1.107 2.655-1.997 5.674-.994 8.244 1.74 1.793 3.669 3.403 5.918 4.61m-5.066-21.616a11.7 11.7 0 0 1-1.503 6.896 11.7 11.7 0 0 1-5.222 4.75c-1.064-1.019-1.798-2.166-1.685-3.315 3.449-1.839 6.3-4.778 8.41-8.331m-8.387-8.539.996-2.769c2.472 1.719 4.267 4.499 4.464 7.503s-1.356 6.141-4.031 7.521c-1.254.646-2.765.896-4.093.419-1.207-.433-2.147-1.414-2.837-2.494s-1.175-2.278-1.769-3.415c-1.881-3.604-4.92-6.592-9.037-8.355a17.2 17.2 0 0 1 8.174-.21c-.543-3.345-.193-6.83 1.078-9.669.495 2.398 2.307 4.264 3.963 6.068 1.655 1.804 3.313 3.893 3.092 5.401m124.592 11.088c-3.871 4.297-9.282 7.176-15.008 7.985-5.727.81-11.724-.456-16.346-4.195 5.124-5.345 8.521-12.32 9.506-19.693-1.744-1.339-2.565-3.771-1.693-5.851 2.002 2.106 4.975 3.249 7.873 3.026 2.897-.223 5.66-1.806 7.277-3.739.292 2.264-.602 4.648-1.824 6.226 1.629 6.602 5.605 12.599 10.215 16.241"/><path style="fill:#292f44" d="M192.728 192.368a27.9 27.9 0 0 1 4.201 10.474c.214.208 2.64-.54 2.64-.54.438 2.537-.705 5.28-2.816 6.755s-5.081 1.604-7.312.319-3.609-3.918-3.078-6.546c.964.064 1.91.364 3.203.822.148-3.944 1.369-7.842 3.162-11.284"/><circle style="fill:#292f44" cx="155.869" cy="200.608" r="4"/><path style="fill:#292f44" d="M155.869 209.089a3.48 3.48 0 1 1 6.96-.001 3.48 3.48 0 0 1-6.96.001m4.5 7.747a3.266 3.266 0 1 1 6.531 0 3.266 3.266 0 0 1-6.531 0"/><circle style="fill:#292f44" cx="168.135" cy="223.949" r="3.266"/><path style="fill:#292f44" d="M170.657 230.853a3.058 3.058 0 1 1 6.116 0 3.058 3.058 0 0 1-6.116 0m33.25-11.4a3.058 3.058 0 1 1 6.116 0 3.058 3.058 0 0 1-6.116 0"/><circle style="fill:#292f44" cx="212.169" cy="226.232" r="3.058"/><path style="fill:#292f44" d="M110.949 309.019a24.9 24.9 0 0 0-1.597 7.846c-2.578-2.422-3.807-5.806-3.682-9.267 1.796-.103 3.619.316 5.279 1.421M250 154.337c2.925 0 5.269.001 8.076 1 2.807.998 5.254 3.678 4.963 6.643-.198 2.021-1.565 3.704-2.425 5.545-1.914 4.096-1.279 8.894-.304 13.309 3.627 16.44 11.35 31.738 20.59 45.81 4.1 6.246 8.748 12.498 15.35 15.995 8.277 4.383 18.659 3.659 27.053-.494s14.957-11.381 19.8-19.398c4.842-8.016 8.119-16.86 11.367-25.645-3.317-4.233-5.571-9.775-5.557-15.343 2.324 5.076 6.268 8.94 11.03 10.841 4.762 1.902 10.282 1.816 14.984-.231-2.965 5.376-9.009 7.718-14.385 6.448-3.746 8.124-5.807 17.026-6.562 26.039-8.011 8.296-14.797 18.175-23.737 25.859s-21.14 13.097-32.459 9.807c-9.298-2.702-16.058-10.632-21.481-18.654-15.57-23.032-24.52-50.184-26.303-77.928-1.783 27.744-10.733 54.895-26.303 77.928-5.423 8.022-12.183 15.952-21.481 18.654-11.319 3.29-23.52-2.122-32.459-9.807-8.94-7.684-15.726-17.563-23.737-25.859-.755-9.013-2.816-17.915-6.562-26.039-5.376 1.27-11.42-1.072-14.385-6.448 4.702 2.047 10.222 2.133 14.984.231s8.706-5.765 11.03-10.841c.014 5.568-2.24 11.11-5.557 15.343 3.248 8.785 6.525 17.629 11.367 25.645 4.843 8.017 11.406 15.245 19.8 19.398s18.776 4.877 27.053.494c6.602-3.497 11.25-9.749 15.35-15.995 9.24-14.072 16.963-29.37 20.59-45.81.975-4.415 1.61-9.213-.304-13.309-.86-1.841-2.227-3.524-2.425-5.545-.291-2.965 2.156-5.645 4.963-6.643s5.151-1 8.076-1"/><path style="fill:#292f44" d="M250 150.068c2.814 0 5.213.261 7.956 1.152 2.742.891 5.321 2.49 6.989 4.843s2.316 5.508 1.305 8.208c-.644 1.72-1.928 3.539-1.158 5.207.524 1.133 1.938 1.692 3.159 1.432s2.219-1.207 2.773-2.327c.553-1.119.711-2.394.716-3.643a16.15 16.15 0 0 0-1.841-7.525c-.597-1.137-1.347-2.466-.771-3.613.399-.796 1.321-1.183 2.197-1.341 3.358-.606 6.997 1.546 8.085 4.78.801 2.38.302 5.013-.605 7.355a22.43 22.43 0 0 1-9.112 10.934c5.238-1.378 10.342-4.579 13.518-9.283s4.208-10.971 2.036-16.214-7.769-9.064-13.418-8.524a12.13 12.13 0 0 0-7.331 3.445c-4.918-2.499-9.194-3.496-14.498-3.496s-9.58.997-14.498 3.496a12.13 12.13 0 0 0-7.331-3.445c-5.649-.54-11.246 3.281-13.418 8.524s-1.14 11.511 2.036 16.214c3.176 4.704 8.28 7.905 13.518 9.283a22.43 22.43 0 0 1-9.112-10.934c-.907-2.342-1.406-4.975-.605-7.355 1.088-3.234 4.727-5.386 8.085-4.78.876.158 1.798.545 2.197 1.341.576 1.147-.174 2.476-.771 3.613a16.15 16.15 0 0 0-1.841 7.525c.005 1.249.163 2.524.716 3.643.554 1.12 1.552 2.067 2.773 2.327s2.635-.299 3.159-1.432c.77-1.668-.514-3.487-1.158-5.207-1.011-2.7-.363-5.856 1.305-8.208s4.247-3.952 6.989-4.843 5.142-1.152 7.956-1.152m123.742 7.659c-4.161 1.573-8.366 3.168-12.043 5.671-3.678 2.503-6.833 6.039-7.998 10.333-1.163 4.293.015 9.364 3.543 12.072 2.403 1.844 5.572 2.426 8.598 2.315 2.594-.096 5.291-.721 7.227-2.45 2.49-2.225 3.238-5.796 3.465-9.128.409-6.011-.435-12.106-2.792-18.813m-4.034 70.688c.473 9.804 3.159 19.447 7.39 28.304 2.062 4.318 4.845 8.772 9.345 10.402 4.805 1.741 10.341-.366 13.983-3.951s5.76-8.405 6.894-12.714c-2.382 3.143-4.831 6.349-8.131 8.507-3.3 2.16-7.674 3.102-11.226 1.388-2.208-1.065-3.866-3.029-5.095-5.15-2.585-4.46-3.494-9.657-4.995-14.588s-3.883-9.969-8.165-12.198m5.903-13.761a2.95 2.95 0 1 0-5.902 0 2.95 2.95 0 0 0 5.902 0m-1.164 7.75a2.952 2.952 0 1 0-5.903.001 2.952 2.952 0 0 0 5.903-.001"/><path style="fill:#292f44" d="M377.535 234.632c-1.073-2.723-3.033-5.089-5.536-6.618 2-.763 3.742-2.187 4.746-4.065a13.7 13.7 0 0 1 .79 10.683m17.446 13.875.223 8.448c3.629-2.117 5.926-6.333 5.636-10.833-1.7 1.446-3.882 2.315-5.859 2.385m7.047 1.867a17.4 17.4 0 0 1 .869-6.731l-2.28.19a10.9 10.9 0 0 1 4.266-6.984c-.161.021-2.48.415-2.48.415a14.5 14.5 0 0 1 2.067-8.078c.022 2.98 1.374 5.677 2.482 8.334 1.107 2.655 1.997 5.674.994 8.244-1.74 1.793-3.669 3.403-5.918 4.61m5.066-21.616a11.7 11.7 0 0 0 1.503 6.896 11.7 11.7 0 0 0 5.222 4.75c1.064-1.019 1.798-2.166 1.685-3.315-3.449-1.839-6.3-4.778-8.41-8.331m8.387-8.539-.996-2.769c-2.472 1.719-4.267 4.499-4.464 7.503s1.356 6.141 4.031 7.521c1.254.646 2.765.896 4.093.419 1.207-.433 2.147-1.414 2.837-2.494s1.175-2.278 1.769-3.415c1.881-3.604 4.92-6.592 9.037-8.355a17.2 17.2 0 0 0-8.174-.21c.543-3.345.193-6.83-1.078-9.669-.495 2.398-2.307 4.264-3.963 6.068-1.655 1.804-3.313 3.893-3.092 5.401m-124.592 11.088c3.871 4.297 9.282 7.176 15.008 7.985 5.727.81 11.724-.456 16.346-4.195-5.124-5.345-8.521-12.32-9.506-19.693 1.744-1.339 2.565-3.771 1.693-5.851-2.002 2.106-4.975 3.249-7.873 3.026-2.897-.223-5.66-1.806-7.277-3.739-.292 2.264.602 4.648 1.824 6.226-1.629 6.602-5.605 12.599-10.215 16.241"/><path style="fill:#292f44" d="M307.272 192.368a27.9 27.9 0 0 0-4.201 10.474c-.214.208-2.64-.54-2.64-.54-.438 2.537.705 5.28 2.816 6.755s5.081 1.604 7.312.319 3.609-3.918 3.078-6.546c-.964.064-1.91.364-3.203.822-.148-3.944-1.369-7.842-3.162-11.284"/><circle style="fill:#292f44" cx="344.131" cy="200.608" r="4"/><path style="fill:#292f44" d="M344.131 209.089a3.48 3.48 0 1 0-6.96-.001 3.48 3.48 0 0 0 6.96.001m-4.5 7.747a3.266 3.266 0 1 0-6.531 0 3.266 3.266 0 0 0 6.531 0"/><circle style="fill:#292f44" cx="331.865" cy="223.949" r="3.266"/><path style="fill:#292f44" d="M329.343 230.853a3.058 3.058 0 1 0-6.116 0 3.058 3.058 0 0 0 6.116 0m-33.25-11.4a3.058 3.058 0 1 0-6.116 0 3.058 3.058 0 0 0 6.116 0"/><circle style="fill:#292f44" cx="287.831" cy="226.232" r="3.058"/><path style="fill:#292f44" d="M389.051 309.019a24.9 24.9 0 0 1 1.597 7.846c2.578-2.422 3.807-5.806 3.682-9.267-1.796-.103-3.619.316-5.279 1.421M266.382 127.69c-2.327.46-4.478 1.762-6.04 3.752a19.7 19.7 0 0 0-2.294-11.857 19.7 19.7 0 0 0-8.048-7.864 19.73 19.73 0 0 0-8.049 7.864 19.7 19.7 0 0 0-2.294 11.857c-1.562-1.99-3.713-3.292-6.04-3.752a10.28 10.28 0 0 0-6.889 1.07c2.381 1.82 4.403 4.132 6.006 6.764a8.8 8.8 0 0 1 2.941-.744c.449-.031 1.012.045 1.161.469.154.443-.275.857-.662 1.121-.719.49-1.472.927-2.238 1.337a27.6 27.6 0 0 1 1.611 4.089c5.003-1.853 9.312-2.785 14.453-2.785s9.45.932 14.453 2.785a27.5 27.5 0 0 1 1.611-4.089 25 25 0 0 1-2.238-1.337c-.387-.264-.816-.678-.662-1.121.149-.424.712-.5 1.161-.469a8.8 8.8 0 0 1 2.941.744c1.603-2.632 3.624-4.944 6.006-6.764a10.28 10.28 0 0 0-6.89-1.07m-14.803 4.789c-.745.832-2.163.94-3.025.23-.861-.711-1.027-2.123-.352-3.013s2.078-1.113 2.995-.475c1.21.841 1.126 2.426.382 3.258M189.892 325.14a5.056 5.056 0 1 0-10.113 0 5.056 5.056 0 0 0 10.113 0m-61.158 15.965a3.376 3.376 0 1 0-6.752 0 3.376 3.376 0 0 0 6.752 0m10.66-4.545a3.797 3.797 0 1 0-7.594 0 3.797 3.797 0 0 0 7.594 0m11.921-3.796a4.175 4.175 0 1 0-8.35 0 4.175 4.175 0 0 0 8.35 0"/><circle style="fill:#292f44" cx="159.075" cy="329.726" r="4.586"/><circle style="fill:#292f44" cx="171.206" cy="327.408" r="4.894"/><path style="fill:#292f44" d="M405.281 260.494c-2.756 5.267-7.093 10.347-12.966 11.272-4.515.712-9.154-1.252-12.523-4.343-3.368-3.09-5.629-7.197-7.463-11.384-6.974-15.918-8.479-34.172-4.206-51.017 0 0-5.98-2.863-6.131-2.293-3.583 9.667-4.682 20.154-3.991 30.441s3.134 20.399 6.445 30.162c1.67 4.927 3.595 9.839 6.631 14.064s7.309 7.747 12.362 8.981c5.054 1.235 10.89-.155 13.985-4.159-.352 2.23-1.831 4.176-3.691 5.454-1.861 1.278-4.076 1.949-6.3 2.335-4.5.783-9.365.405-13.26-1.983-5.419-3.323-7.955-9.738-10.088-15.726-4.725-13.262-9.248-26.865-9.852-41.302a96 96 0 0 1-26.437 27.504c-6.171 4.263-13.085 7.87-20.561 8.474-11.349.918-22.329-5.339-29.893-13.85s-12.305-19.097-16.937-29.166c2.498 8.216 5.042 16.466 8.874 24.15s9.047 14.844 16.038 19.83 15.899 7.624 24.7 5.544c-9.918 3.803-21.529.244-29.63-6.626s-13.259-16.558-17.422-26.33A196.6 196.6 0 0 1 250 196.295a196.6 196.6 0 0 1-12.965 44.231c-4.163 9.772-9.321 19.46-17.422 26.33s-19.712 10.429-29.63 6.626c8.801 2.08 17.71-.558 24.7-5.544 6.991-4.986 12.205-12.146 16.038-19.83 3.832-7.684 6.376-15.934 8.874-24.15-4.632 10.069-9.373 20.656-16.937 29.166s-18.544 14.768-29.893 13.85c-7.476-.604-14.39-4.211-20.561-8.474a96 96 0 0 1-26.437-27.504c-.604 14.437-5.127 28.04-9.852 41.302-2.133 5.988-4.669 12.403-10.088 15.726-3.895 2.388-8.76 2.766-13.26 1.983-2.224-.386-4.439-1.057-6.3-2.335s-3.339-3.224-3.691-5.454c3.095 4.004 8.931 5.394 13.985 4.159 5.053-1.234 9.327-4.756 12.362-8.981s4.961-9.137 6.631-14.064c3.311-9.763 5.754-19.875 6.445-30.162s-.408-20.774-3.991-30.441c-.151-.57-6.131 2.293-6.131 2.293 4.273 16.845 2.768 35.099-4.206 51.017-1.834 4.187-4.095 8.294-7.463 11.384-3.369 3.091-8.008 5.055-12.523 4.343-5.873-.925-10.21-6.005-12.966-11.272s-4.529-11.102-8.127-15.834c7.102 19.624 13.341 39.759 18.659 60.136.281.352 2.614.104 2.614.104a17.3 17.3 0 0 1 2.681-7.899c2.449 3.191 3.966 7.184 4.14 11.246a19.2 19.2 0 0 1-3.284 11.532 37.6 37.6 0 0 0 1.637 7.629c-3.113 4.255.407 7.644.407 7.644-.792 3.58-1.002 6.921-.492 10.049-5.644 6.394-.277 9.869-.277 9.869-.827 1.347-1.263 2.722-1.263 4.119 0 16.845 62.047 30.5 138.585 30.5s138.585-13.655 138.585-30.5c0-1.397-.436-2.772-1.263-4.12h.001s5.366-3.475-.277-9.869c.51-3.128.3-6.469-.492-10.049 0 0 3.521-3.389.407-7.644a37.6 37.6 0 0 0 1.637-7.629 19.2 19.2 0 0 1-3.284-11.532c.174-4.062 1.691-8.055 4.14-11.246a17.3 17.3 0 0 1 2.681 7.899s2.333.248 2.614-.104c5.318-20.377 11.557-40.512 18.659-60.136-3.597 4.733-5.371 10.567-8.126 15.835M99.134 271.386c3.21 4.767 9.361 7.428 14.994 6.291 4.713-.95 8.672-4.285 11.404-8.241 2.733-3.956 4.404-8.531 5.924-11.882-.381 4.339-1.31 8.674-3.219 12.59-1.909 3.915-4.848 7.401-8.653 9.522-3.805 2.12-8.507 2.771-12.609 1.305s-7.436-5.177-7.841-9.585m238.318-.523c.812-1.76 2.243-3.166 3.804-4.316s3.27-2.08 4.881-3.158c.14 4.128.608 8.225-.888 11.85-.548 1.328-1.433 2.621-2.769 3.152-1.801.716-3.995-.263-4.974-1.936-.979-1.672-.867-3.833-.054-5.592m-19.398 16.374s4.256-4.52 4.361-4.575c.936 2.549 2.287 4.947 4.128 6.839a80 80 0 0 1 6.384-6.451s.092 4.97.287 4.864c1.347-.93 2.784-1.73 4.172-2.304l-.031 5.494c2.414-.437 4.676-1.098 6.776-2.099-2.085 4.08-6.311 6.889-10.853 7.643s-9.319-.469-13.134-3.044c-3.816-2.576-6.686-6.439-8.37-10.725zm-43.023-10.919a5.875 5.875 0 1 1 0 11.75 5.875 5.875 0 0 1 0-11.75m-28.882-24.263c1.093-2.032 2.543-3.846 3.985-5.647 2.802 3.036 4.849 6.549 5.693 10.338.311 1.396.462 2.85.212 4.258-.251 1.407-.935 2.773-2.064 3.652-1.82 1.418-4.573 1.287-6.464-.035s-2.941-3.64-3.061-5.943c-.119-2.305.606-4.59 1.699-6.623m.573 24.262a48 48 0 0 1 3.063-5.413l4.031 5.866 9.858-2.845a36.1 36.1 0 0 1-8.771 9.958c-1.314 1.027-2.826 2.001-4.492 1.956-1.763-.049-3.274-1.225-4.588-2.403-3.327-2.982-6.372-6.438-8.005-10.597.269-.07 8.904 3.478 8.904 3.478m-21.753.001a5.875 5.875 0 1 1 0 11.75 5.875 5.875 0 0 1 0-11.75m-57.896 6.733a80 80 0 0 1 6.384 6.451c1.841-1.892 3.192-4.29 4.128-6.839.105.055 4.361 4.575 4.361 4.575l6.28-4.358c-1.684 4.286-4.554 8.149-8.37 10.725-3.815 2.575-8.592 3.798-13.134 3.044s-8.768-3.563-10.853-7.643c2.1 1.001 4.362 1.662 6.776 2.099l-.031-5.494c1.388.574 2.825 1.374 4.172 2.304.195.106.287-4.864.287-4.864m-13.21-19.662c1.611 1.078 3.321 2.009 4.881 3.158s2.992 2.556 3.804 4.316c.813 1.759.925 3.92-.054 5.592-.979 1.673-3.173 2.652-4.974 1.936-1.336-.531-2.221-1.824-2.769-3.152-1.496-3.625-1.028-7.722-.888-11.85m-33.129 58.794c7.618-4.369 16.175-7.295 24.686-9.789 21.982-6.44 43.669-10.492 65.681-12.607 8.127-.613 6.208 5.524-.163 6.112l.085.009a479 479 0 0 0-28.252 3.243c-20.445 2.968-41.485 7.554-58.858 18.266l.005-.01c-7.435 4.098-9.518-1.334-3.184-5.224m67.267 9.623c-26.593 2.933-48.302 7.692-61.728 13.532l.001-.003c-4.87 1.416-7.9-4.151-3.159-7.904 12.53-7.795 27.407-11.935 42.003-15.001a481 481 0 0 1 21.381-4.006c8.469-.877 9.772 12.456 1.488 13.381zm61.998 51.955c-63.638 0-129.463-9.052-129.463-24.2s65.825-24.2 129.463-24.2c63.639 0 129.464 9.052 129.464 24.2.001 15.148-65.824 24.2-129.464 24.2m123.728-38.423c-13.426-5.84-35.135-10.599-61.728-13.532l.014-.001c-8.284-.925-6.981-14.258 1.488-13.381a484 484 0 0 1 21.381 4.006c14.596 3.066 29.474 7.206 42.003 15.001 4.741 3.753 1.711 9.32-3.159 7.904zm2.354-17.93.005.01c-17.374-10.713-38.414-15.298-58.858-18.266a479 479 0 0 0-28.252-3.243l.085-.009c-6.37-.587-8.29-6.725-.163-6.112 22.012 2.114 43.699 6.166 65.681 12.607 8.511 2.494 17.068 5.42 24.686 9.789 6.335 3.889 4.251 9.321-3.184 5.224m16.944-46.437c-4.102 1.466-8.804.815-12.609-1.305s-6.744-5.607-8.653-9.522-2.838-8.251-3.219-12.59c1.52 3.351 3.191 7.926 5.924 11.882 2.732 3.956 6.691 7.291 11.404 8.241 5.633 1.137 11.784-1.524 14.994-6.291-.405 4.408-3.739 8.12-7.841 9.585"/><path style="fill:#292f44" d="M249.956 364.461c-72.054 0-114.495-11.331-118.523-12.454-5.538 2.45-8.496 5.023-8.496 7.554 0 10.528 51.057 21.8 127.063 21.8s127.064-11.272 127.064-21.8c0-2.531-2.958-5.104-8.496-7.554-4.031 1.124-46.56 12.454-118.612 12.454"/><path style="fill:#292f44" d="M249.956 362.06c63.075 0 103.376-8.702 114.855-11.554-19.467-7.064-60.846-12.746-114.811-12.746-53.964 0-95.343 5.682-114.81 12.746 11.478 2.852 51.691 11.554 114.766 11.554"/><path style="fill:#d3d8eb" d="M250 296.869c-9.211 0-19.196 5.544-14.304 17.437C240.587 326.198 250 328.589 250 328.589s9.413-2.391 14.304-14.284c4.892-11.892-5.093-17.436-14.304-17.436"/><path style="fill:#292f44" d="M310.108 325.14a5.056 5.056 0 1 1 10.113 0 5.056 5.056 0 0 1-10.113 0m61.157 15.965a3.376 3.376 0 1 1 6.752 0 3.376 3.376 0 0 1-6.752 0m-10.659-4.545a3.797 3.797 0 1 1 7.594 0 3.797 3.797 0 0 1-7.594 0m-11.922-3.796a4.175 4.175 0 1 1 8.35 0 4.175 4.175 0 0 1-8.35 0"/><circle style="fill:#292f44" cx="340.924" cy="329.726" r="4.586"/><circle style="fill:#292f44" cx="328.794" cy="327.408" r="4.894"/><path style="fill:#292f44" d="M250 319.043c5.87-6.463 6.609-10.826 6.609-10.826l4.956 1.696s-1.956-8.609-11.565-8.609-11.565 8.609-11.565 8.609l4.957-1.696c-.001 0 .738 4.364 6.608 10.826"/></svg>